<svg xmlns="http://www.w3.org/2000/svg" viewBox="0 0 471.22 125.46"><defs><style>.cls-1{fill:#fff;}.cls-2{fill:#ffa400;}.cls-3{fill:#ff6c0e;}.cls-4{fill:#415364;}</style></defs><title>insidepacket</title><g id="Layer_2" data-name="Layer 2"><g id="Layer_1-2" data-name="Layer 1"><path class="cls-1" d="M124.47,40.11a2.81,2.81,0,0,1,.76-2,2.7,2.7,0,0,1,2.07-.8,2.69,2.69,0,0,1,2.86,2.77,2.68,2.68,0,0,1-.77,2,2.82,2.82,0,0,1-2.09.79,2.66,2.66,0,0,1-2.83-2.75Zm4.87,48.11H125.2V50.89h4.14Z"/><path class="cls-1" d="M141.66,50.89l.13,6.39A14.77,14.77,0,0,1,147,52,13.59,13.59,0,0,1,154,50.2q6,0,8.94,3.39t3,10.14V88.22h-4.1V63.69c0-3.33-.73-5.82-2.12-7.45S156,53.79,153,53.79a10.45,10.45,0,0,0-6.78,2.4,14,14,0,0,0-4.36,6.47V88.22h-4.11V50.89Z"/><path class="cls-1" d="M193.24,78.74a5.88,5.88,0,0,0-2.47-4.94,19,19,0,0,0-7.43-2.91,33.25,33.25,0,0,1-7.71-2.42,10.24,10.24,0,0,1-4.07-3.33,8.27,8.27,0,0,1-1.33-4.76,8.91,8.91,0,0,1,3.69-7.3,15,15,0,0,1,9.45-2.88c4.16,0,7.51,1,10,3.09a9.92,9.92,0,0,1,3.78,8.06H193a6.67,6.67,0,0,0-2.74-5.45,12.38,12.38,0,0,0-13.46-.37,5.6,5.6,0,0,0-2.46,4.71,5.07,5.07,0,0,0,2,4.33c1.37,1,3.86,2,7.49,2.81a35.5,35.5,0,0,1,8.14,2.73,10.72,10.72,0,0,1,4,3.48,9.59,9.59,0,0,1-2.5,12.49c-2.55,1.89-5.86,2.83-10,2.83q-6.51,0-10.57-3.15a9.73,9.73,0,0,1-4-8h4.13a7.21,7.21,0,0,0,3.06,5.64,12.43,12.43,0,0,0,7.43,2,11.69,11.69,0,0,0,7-1.9A5.69,5.69,0,0,0,193.24,78.74Z"/><path class="cls-1" d="M202.18,40.11a2.76,2.76,0,0,1,.76-2,2.68,2.68,0,0,1,2.07-.8,2.71,2.71,0,0,1,2.86,2.77,2.68,2.68,0,0,1-.78,2,2.8,2.8,0,0,1-2.08.79,2.74,2.74,0,0,1-2.07-.79A2.71,2.71,0,0,1,202.18,40.11ZM207,88.22H202.9V50.89H207Z"/><path class="cls-1" d="M212.36,69.21q0-8.68,3.88-13.85a12.49,12.49,0,0,1,10.54-5.16,13,13,0,0,1,11.52,6V35.23h4.11v53h-3.87l-.17-5q-4,5.67-11.66,5.66a12.44,12.44,0,0,1-10.4-5.19q-3.94-5.19-3.95-14Zm4.17.73q0,7.14,2.87,11.26a9.26,9.26,0,0,0,8.07,4.12q7.62,0,10.83-6.72V61.07q-3.21-7.27-10.76-7.28a9.37,9.37,0,0,0-8.11,4.09Q216.54,62,216.53,69.94Z"/><path class="cls-1" d="M263.49,88.91a16.27,16.27,0,0,1-8.61-2.34,16,16,0,0,1-6-6.54,20.35,20.35,0,0,1-2.14-9.4V69.14a21.87,21.87,0,0,1,2.09-9.69,16.62,16.62,0,0,1,5.81-6.78,14.36,14.36,0,0,1,8.07-2.47,13.48,13.48,0,0,1,10.78,4.64q4,4.65,4,12.68v2.31H250.86v.8A15.66,15.66,0,0,0,254.5,81.2a11.58,11.58,0,0,0,9.16,4.23,13.38,13.38,0,0,0,5.85-1.21,12.93,12.93,0,0,0,4.61-3.86l2.58,2Q272.16,88.92,263.49,88.91Zm-.76-35.19a10.33,10.33,0,0,0-7.85,3.42A15.82,15.82,0,0,0,251,66.32h22.39v-.45a13.71,13.71,0,0,0-3.07-8.77A9.52,9.52,0,0,0,262.73,53.72Z"/><path class="cls-1" d="M316.17,69.9q0,8.63-3.91,13.82a12.57,12.57,0,0,1-10.58,5.19A11.63,11.63,0,0,1,292.54,85v17.59h-10V50.89h9.25l.34,3.66a11.73,11.73,0,0,1,9.46-4.35,12.63,12.63,0,0,1,10.72,5.11q3.84,5.1,3.83,14.08Zm-10-.72q0-5.21-1.84-8A6,6,0,0,0,299,58.31q-4.69,0-6.45,3.59V77.18q1.83,3.69,6.52,3.69Q306.2,80.87,306.2,69.18Z"/><path class="cls-1" d="M341.15,88.22a11.09,11.09,0,0,1-1-3.34,12,12,0,0,1-9.41,4,13.22,13.22,0,0,1-9.09-3.17,10.2,10.2,0,0,1-3.61-8,10.54,10.54,0,0,1,4.4-9.1q4.4-3.18,12.71-3.21h4.59V63.28a6.11,6.11,0,0,0-1.33-4.14,5.2,5.2,0,0,0-4.19-1.55,6,6,0,0,0-4,1.2,4.13,4.13,0,0,0-1.43,3.32h-10a10,10,0,0,1,2-6,13.22,13.22,0,0,1,5.66-4.33,20.69,20.69,0,0,1,8.21-1.57q6.9,0,10.95,3.47t4.05,9.75V79.6c0,3.54.52,6.22,1.49,8v.58Zm-8.24-6.93a8.54,8.54,0,0,0,4.07-1,6.45,6.45,0,0,0,2.76-2.63V71.25H336q-7.49,0-8,5.17l0,.59a4,4,0,0,0,1.31,3.07A5.08,5.08,0,0,0,332.91,81.29Z"/><path class="cls-1" d="M370.1,80.87a6.56,6.56,0,0,0,4.49-1.51,5.35,5.35,0,0,0,1.79-4h9.35a12.72,12.72,0,0,1-2.07,7,13.61,13.61,0,0,1-5.57,4.9,17.46,17.46,0,0,1-7.82,1.74q-8,0-12.62-5.09t-4.63-14v-.66q0-8.62,4.59-13.77t12.6-5.14c4.66,0,8.41,1.33,11.22,4a14.12,14.12,0,0,1,4.3,10.61h-9.35a6.9,6.9,0,0,0-1.79-4.74,6.67,6.67,0,0,0-9.82.72C363.59,62.48,363,65.22,363,69v1q0,5.77,1.75,8.29A6.1,6.1,0,0,0,370.1,80.87Z"/><path class="cls-1" d="M400.74,73.25l-3.59,3.59V88.22h-10v-53h10V64.59l1.94-2.48,9.55-11.22h12L407.12,66.45l14.67,21.77H410.33Z"/><path class="cls-1" d="M435.75,88.91q-8.22,0-13.37-5t-5.16-13.42v-1a22.56,22.56,0,0,1,2.18-10.06,16,16,0,0,1,6.15-6.83,17.29,17.29,0,0,1,9.09-2.4q7.67,0,12.06,4.83t4.4,13.7V72.8H427.33a9.24,9.24,0,0,0,2.92,5.87,8.8,8.8,0,0,0,6.15,2.2,10.78,10.78,0,0,0,9-4.17l4.9,5.49a15.11,15.11,0,0,1-6.07,5A20,20,0,0,1,435.75,88.91Zm-1.14-30.67a6.22,6.22,0,0,0-4.81,2A10.46,10.46,0,0,0,427.43,66H441.3v-.79a7.41,7.41,0,0,0-1.79-5.15A6.44,6.44,0,0,0,434.61,58.24Z"/><path class="cls-1" d="M464.46,41.72v9.17h6.38v7.32h-6.38V76.84a4.46,4.46,0,0,0,.79,3,4,4,0,0,0,3,.89,16,16,0,0,0,2.93-.24V88a20.83,20.83,0,0,1-6,.89q-10.49,0-10.69-10.59V58.21H449V50.89h5.46V41.72Z"/><polygon class="cls-2" points="30.05 49.12 53.1 62.73 76.14 49.12 53.1 35.51 30.05 49.12"/><polygon class="cls-2" points="21.39 44 53.1 25.27 84.81 44 84.81 44 106.2 31.37 53.1 0 0 31.37 21.39 44 21.39 44"/><polygon class="cls-3" points="76.14 49.12 53.1 62.73 53.1 89.96 76.14 76.34 76.14 49.12"/><polygon class="cls-3" points="84.81 44 84.81 81.46 53.1 100.2 53.1 100.2 53.1 125.46 106.2 94.1 106.2 31.37 84.81 44"/><polygon class="cls-4" points="30.05 49.12 30.05 76.34 53.1 89.96 53.1 62.73 30.05 49.12"/><polygon class="cls-4" points="21.39 81.46 21.39 68.47 21.39 44 0 31.37 0 94.1 21.39 106.73 21.39 81.46"/><polygon class="cls-4" points="30.05 86.58 30.05 111.85 53.1 125.46 53.1 100.2 30.05 86.58"/></g></g></svg>